<svg width="55" height="50" viewBox="0 0 55 50" fill="none" xmlns="http://www.w3.org/2000/svg">
<g clip-path="url(#clip0_50_506)">
<path d="M38.4347 47.586C38.4347 47.586 27.3641 41.7538 27.3877 32.2324C27.3877 32.2324 27.6844 29.2254 28.7323 24.9203C29.7801 20.6152 30.042 18.1668 29.1539 16.2073C28.2654 14.2481 28.3114 11.674 31.8309 14.5784C31.8309 14.5784 35.0593 16.737 34.2682 22.3466C33.8293 25.8488 31.5451 32.0382 35.0649 29.4536C35.0649 29.4536 38.0771 25.9966 36.9901 20.8887C35.9026 15.7808 33.0898 11.4065 30.5216 7.60833C27.9535 3.80977 27.9303 2.35192 27.6856 1.77695C27.441 1.20198 27.5663 -1.75976 30.277 1.54352C30.277 1.54352 33.1527 5.80895 36.8543 9.39691C40.556 12.9849 46.5808 19.796 44.2509 31.3054C42.359 39.3122 42.0747 43.0479 44.3526 46.1005C44.3526 46.1005 47.0116 50.2406 54.2956 48.3904C54.2952 48.39 49.1689 52.5005 38.4347 47.586Z" fill="#006838"/>
<path d="M15.8731 47.3774C15.8731 47.3774 27.0534 41.7582 27.212 32.2376C27.212 32.2376 26.9729 29.2254 26.0076 24.9011C25.0422 20.5764 24.8272 18.1236 25.7529 16.1817C26.6786 14.2397 26.6822 11.6652 23.1079 14.502C23.1079 14.502 19.8387 16.5985 20.5225 22.2221C20.8941 25.7323 23.0599 31.9637 19.59 29.3123C19.59 29.3123 16.6443 25.7984 17.8291 20.7122C19.0138 15.6259 21.9099 11.3064 24.5505 7.55791C27.1912 3.80939 27.242 2.35194 27.4979 1.78178C27.7533 1.21161 27.6848 -1.75173 24.9117 1.4987C24.9117 1.4987 21.9548 5.70847 18.1854 9.22476C14.4157 12.741 8.26157 19.4361 10.3709 30.9879C12.109 39.0291 12.322 42.77 9.98608 45.7782C9.98608 45.7782 7.24857 49.8667 0.000976658 47.8775C0.000175863 47.8779 5.04678 52.0857 15.8731 47.3774Z" fill="#006838"/>
</g>
<defs>
<clipPath id="clip0_50_506">
<rect width="54.2951" height="50" fill="white"/>
</clipPath>
</defs>
</svg>
